
<svg version="1.0" xmlns="http://www.w3.org/2000/svg"
 width="850.000000pt" height="263.000000pt" viewBox="0 0 850.000000 263.000000"
 preserveAspectRatio="xMidYMid meet">

<g transform="translate(0.000000,263.000000) scale(0.100000,-0.100000)"
fill="#000000" stroke="none">
<path d="M7588 2516 c-17 -12 -16 -16 15 -57 170 -224 308 -497 366 -721 27
-105 28 -107 46 -88 23 25 16 68 -30 208 -47 138 -148 336 -256 496 -121 179
-120 178 -141 162z"/>
<path d="M7503 2462 l-23 -17 60 -80 c74 -100 198 -306 244 -407 41 -90 93
-243 102 -298 6 -39 8 -40 45 -40 45 0 45 1 24 94 -46 196 -174 449 -348 683
-33 46 -66 83 -72 83 -5 0 -20 -8 -32 -18z"/>
<path d="M7421 2409 c-25 -16 -50 -34 -55 -41 -9 -9 -7 -9 5 0 23 17 27 7 21
-43 -3 -30 0 -50 9 -62 23 -27 17 -249 -9 -344 -25 -95 -85 -215 -146 -294
-48 -63 -161 -165 -182 -165 -20 0 -28 39 -27 125 2 92 35 217 88 332 29 64
31 72 14 62 -35 -18 -83 -154 -115 -324 -16 -86 -25 -348 -12 -361 5 -4 40 13
67 33 3 2 4 21 3 42 -3 37 1 42 63 91 144 114 239 263 291 455 9 35 19 123 23
214 4 105 10 156 18 158 19 7 98 -103 153 -209 49 -98 104 -257 136 -398 l17
-75 38 3 c22 2 41 7 43 11 17 26 -62 268 -136 416 -45 91 -246 406 -258 404
-3 0 -25 -14 -49 -30z"/>
<path d="M7369 2233 c-13 -16 -12 -17 4 -4 16 13 21 21 13 21 -2 0 -10 -8 -17
-17z"/>
<path d="M7385 2211 c-3 -5 -1 -12 5 -16 5 -3 10 1 10 9 0 18 -6 21 -15 7z"/>
<path d="M7330 2195 c-11 -13 -11 -18 0 -28 10 -9 11 -9 5 2 -4 8 -2 17 6 22
7 4 11 11 8 14 -4 3 -12 -2 -19 -10z"/>
<path d="M7492 2088 c-6 -68 -21 -157 -32 -198 -48 -172 -150 -329 -279 -430
-58 -45 -71 -60 -71 -83 l0 -29 33 20 c56 34 170 97 236 131 58 31 63 32 56
12 -6 -20 -3 -19 65 9 38 17 110 41 158 54 l87 23 -3 44 c-11 129 -135 450
-209 537 l-29 33 -12 -123z m-2 -542 c0 -2 -7 -7 -16 -10 -8 -3 -12 -2 -9 4 6
10 25 14 25 6z"/>
<path d="M7384 2097 c-2 -7 0 -24 5 -38 9 -22 10 -21 10 14 1 37 -5 48 -15 24z"/>
<path d="M7240 2071 c0 -6 4 -13 10 -16 6 -3 7 1 4 9 -7 18 -14 21 -14 7z"/>
<path d="M7325 2070 c-3 -5 7 -35 23 -67 l29 -57 8 32 c5 27 2 39 -20 67 -28
38 -31 40 -40 25z"/>
<path d="M7265 2040 c-3 -6 3 -23 14 -39 12 -16 32 -53 46 -82 24 -53 24 -53
34 -26 9 23 5 35 -31 92 -42 65 -51 74 -63 55z"/>
<path d="M7205 2010 c-3 -5 6 -25 20 -44 14 -19 41 -65 60 -102 32 -67 34 -68
45 -43 10 22 7 31 -26 79 -20 30 -43 70 -50 88 -14 31 -37 42 -49 22z"/>
<path d="M6976 1995 c-9 -26 -7 -32 5 -12 6 10 9 21 6 23 -2 3 -7 -2 -11 -11z"/>
<path d="M7162 1937 l-23 -54 34 -50 c19 -28 43 -71 53 -97 21 -51 28 -55 44
-27 8 16 3 30 -26 73 -36 53 -74 130 -74 150 0 25 41 -29 76 -102 22 -43 42
-79 45 -79 21 -2 13 32 -15 72 -18 25 -45 73 -60 107 -15 33 -28 60 -29 60 -1
0 -12 -24 -25 -53z"/>
<path d="M7045 1929 c-37 -24 -46 -24 -38 -1 3 9 3 14 -1 10 -4 -3 -8 -13 -10
-21 -1 -8 -7 -21 -13 -28 -15 -19 -59 -186 -73 -280 -13 -78 -11 -372 2 -384
4 -4 21 4 39 17 l31 25 -1 139 c-2 164 14 269 65 426 20 60 34 111 32 113 -2
1 -16 -6 -33 -16z"/>
<path d="M6912 1852 c-12 -12 -28 -59 -43 -128 -21 -95 -24 -133 -23 -299 0
-104 5 -202 10 -217 8 -23 11 -25 27 -13 17 12 17 19 6 96 -17 121 -7 309 26
452 14 66 24 121 22 124 -3 2 -14 -4 -25 -15z"/>
<path d="M7120 1836 c-14 -37 -13 -40 9 -60 10 -9 32 -46 47 -81 16 -36 31
-65 34 -65 3 0 11 9 18 20 11 18 9 25 -12 53 -13 18 -38 61 -55 96 -30 64 -30
64 -41 37z"/>
<path d="M7095 1751 c-5 -25 -1 -41 23 -79 16 -26 33 -57 37 -70 6 -22 8 -23
26 -7 18 17 17 19 -12 61 -16 24 -38 63 -48 85 l-19 41 -7 -31z"/>
<path d="M8053 1747 c3 -8 11 -49 18 -93 10 -65 34 -123 45 -111 6 5 -25 146
-40 180 -14 34 -35 55 -23 24z"/>
<path d="M7075 1656 c-5 -18 -4 -35 4 -45 6 -9 17 -28 24 -43 13 -32 20 -34
37 -13 9 11 7 21 -14 47 -14 19 -29 45 -34 58 l-10 25 -7 -29z"/>
<path d="M1890 1485 l0 -95 103 2 102 2 -97 3 -98 4 0 84 0 85 363 3 362 2
-367 3 -368 2 0 -95z"/>
<path d="M4152 1328 l3 -253 2 247 3 247 123 4 122 3 -127 2 -128 2 2 -252z"/>
<path d="M7070 1530 c0 -28 2 -31 15 -20 12 10 13 16 3 29 -7 9 -14 18 -15 20
-2 2 -3 -10 -3 -29z"/>
<path d="M8023 1476 c-15 -19 -23 -42 -23 -70 0 -50 -34 -196 -55 -236 -21
-40 -19 -45 10 -26 42 28 39 18 -16 -41 -29 -32 -65 -76 -81 -98 -16 -22 -33
-40 -37 -40 -15 0 -149 -120 -154 -138 -5 -15 -2 -15 24 4 16 11 48 43 71 70
22 27 44 47 47 44 3 -3 -29 -40 -72 -83 -64 -64 -74 -80 -66 -95 8 -13 7 -23
-3 -35 -30 -37 88 66 139 123 156 172 248 392 241 575 l-3 75 -22 -29z"/>
<path d="M7938 1393 c-27 -28 -40 -55 -52 -103 -20 -79 -74 -196 -122 -263
-40 -56 -37 -55 67 24 61 46 80 68 97 108 34 78 71 271 53 271 -4 0 -23 -17
-43 -37z"/>
<path d="M5994 1255 c0 -60 1 -84 3 -52 2 32 2 81 0 110 -2 29 -3 3 -3 -58z"/>
<path d="M7826 1291 c-15 -15 -32 -45 -37 -67 -20 -70 -79 -181 -134 -246 -61
-75 -179 -168 -213 -168 -14 0 -21 -4 -17 -11 4 -6 14 -8 24 -5 9 4 5 -3 -9
-15 -42 -35 1 -9 75 47 133 99 226 205 288 329 34 67 63 153 54 161 -2 2 -16
-9 -31 -25z"/>
<path d="M7732 1211 c-18 -13 -22 -23 -17 -44 10 -37 19 -34 38 13 18 46 11
56 -21 31z"/>
<path d="M7660 1155 c-11 -13 -11 -24 1 -62 l15 -47 21 34 c20 31 20 36 7 62
-17 32 -26 35 -44 13z"/>
<path d="M3550 1145 c0 -5 5 -17 10 -25 5 -8 10 -10 10 -5 0 6 -5 17 -10 25
-5 8 -10 11 -10 5z"/>
<path d="M7592 1107 c-8 -9 -6 -29 7 -70 l17 -57 24 25 24 25 -22 45 c-23 47
-33 53 -50 32z"/>
<path d="M7523 1058 c-5 -8 -1 -36 12 -76 l21 -63 23 24 22 25 -25 51 c-27 53
-37 60 -53 39z"/>
<path d="M7459 1017 c-15 -10 -15 -14 2 -55 10 -24 19 -50 19 -57 0 -23 17
-26 37 -7 20 17 19 18 -11 73 -26 47 -34 55 -47 46z"/>
<path d="M7431 910 c2 -33 14 -59 25 -52 8 5 5 16 -7 37 -11 17 -18 23 -18 15z"/>
<path d="M7391 854 c0 -11 3 -14 6 -6 3 7 2 16 -1 19 -3 4 -6 -2 -5 -13z"/>
<path d="M7185 830 c10 -11 20 -20 23 -20 3 0 -3 9 -13 20 -10 11 -20 20 -23
20 -3 0 3 -9 13 -20z"/>
<path d="M7255 830 c10 -11 20 -20 23 -20 3 0 -3 9 -13 20 -10 11 -20 20 -23
20 -3 0 3 -9 13 -20z"/>
<path d="M7100 745 c13 -14 26 -25 28 -25 3 0 -5 11 -18 25 -13 14 -26 25 -28
25 -3 0 5 -11 18 -25z"/>
<path d="M7367 748 c2 -5 10 -8 18 -8 8 0 16 3 18 8 3 4 -5 7 -18 7 -13 0 -21
-3 -18 -7z"/>
<path d="M5994 635 c0 -60 1 -84 3 -52 2 32 2 81 0 110 -2 29 -3 3 -3 -58z"/>
<path d="M1890 538 c0 -5 46 -7 103 -6 106 1 94 6 -31 10 -39 2 -72 0 -72 -4z"/>
<path d="M6448 543 c23 -2 61 -2 85 0 23 2 4 4 -43 4 -47 0 -66 -2 -42 -4z"/>
<path d="M8328 543 c23 -2 61 -2 85 0 23 2 4 4 -43 4 -47 0 -66 -2 -42 -4z"/>
<path d="M3153 523 c15 -2 39 -2 55 0 15 2 2 4 -28 4 -30 0 -43 -2 -27 -4z"/>
<path d="M4033 523 c15 -2 39 -2 55 0 15 2 2 4 -28 4 -30 0 -43 -2 -27 -4z"/>
<path d="M4943 523 c15 -2 39 -2 55 0 15 2 2 4 -28 4 -30 0 -43 -2 -27 -4z"/>
</g>
</svg>
